<svg width="37" height="37" viewBox="0 0 37 37" fill="none" xmlns="http://www.w3.org/2000/svg">
<path d="M32.375 16.9115L19.9843 28.5974C18.4664 30.0291 16.4076 30.8333 14.2609 30.8333C12.1142 30.8333 10.0554 30.0291 8.53742 28.5974C7.01946 27.1658 6.16669 25.2241 6.16669 23.1995C6.16669 21.1749 7.01946 19.2332 8.53742 17.8016L20.9281 6.1156C21.9401 5.16118 23.3126 4.625 24.7438 4.625C26.1749 4.625 27.5474 5.16118 28.5594 6.1156C29.5714 7.07001 30.1399 8.36447 30.1399 9.71422C30.1399 11.064 29.5714 12.3584 28.5594 13.3128L16.1552 24.9988C15.6492 25.476 14.963 25.7441 14.2474 25.7441C13.5318 25.7441 12.8456 25.476 12.3396 24.9988C11.8336 24.5216 11.5493 23.8744 11.5493 23.1995C11.5493 22.5246 11.8336 21.8774 12.3396 21.4002L23.7865 10.6171" stroke="white" stroke-width="2" stroke-linecap="round" stroke-linejoin="round"/>
</svg>
