<svg width="36" height="31" viewBox="0 0 36 31" fill="none" xmlns="http://www.w3.org/2000/svg">
<path d="M5.7884 29.8692C6.2064 29.5082 6.2526 28.8767 5.8915 28.4587C4.0106 26.2811 2.75174 23.6365 2.24754 20.8036C1.74334 17.9706 2.01247 15.054 3.02658 12.3612C4.0407 9.6683 5.7622 7.2987 8.0099 5.5021L8.036 5.4813C8.1751 5.6628 8.3141 5.8412 8.4488 6.014C8.5646 6.1625 8.6773 6.3072 8.784 6.446C9.2027 6.991 9.5422 7.4638 9.7688 7.8945C9.9973 8.3289 10.0556 8.6194 10.037 8.8168C10.0223 8.9726 9.9493 9.1974 9.587 9.4955L8.8397 10.1103C8.2504 10.5951 7.8792 11.2101 7.7772 11.8855C7.6759 12.5554 7.8528 13.2014 8.2086 13.7228C8.9233 14.7704 10.322 15.3002 11.8157 14.9022C11.9486 14.8668 12.0451 14.8456 12.1145 14.8332C12.1548 14.8986 12.2049 14.9862 12.2769 15.1136L12.8506 16.3855L9.6071 17.447C8.5573 17.7905 7.9848 18.9201 8.3283 19.9699C8.6719 21.0196 9.8014 21.5921 10.8512 21.2486L12.5827 20.6819L14.0852 24.1251C14.3888 24.8209 15.0601 25.2848 15.8182 25.3228C18.8949 25.4768 21.2737 24.3494 22.7725 22.7507C23.5075 21.9667 24.0366 21.0615 24.3143 20.1405C24.5824 19.2509 24.6613 18.1763 24.2378 17.1849C23.8807 16.3488 23.0047 15.8588 22.1054 15.9921L20.6252 16.2114L19.8994 13.9866C19.5569 12.9364 18.4279 12.3628 17.3778 12.7054C16.3277 13.0479 15.7541 14.1769 16.0966 15.227L17.3462 19.0576C17.6326 19.9358 18.4795 20.497 19.3879 20.4325C18.8688 20.8239 18.1528 21.1575 17.2094 21.2833L15.5217 17.4158C15.4894 17.3416 15.453 17.2703 15.413 17.2021L14.0629 14.209L14.0212 14.1351C13.9231 13.961 13.8108 13.7618 13.6925 13.5945C13.5594 13.4064 13.3643 13.1768 13.0662 13.0152C12.4636 12.6885 11.8017 12.8361 11.3008 12.9696C10.5451 13.171 10.0509 12.8745 9.8607 12.5957C9.764 12.454 9.7354 12.3118 9.7547 12.1842C9.7732 12.0621 9.8484 11.8703 10.1104 11.6548L10.8576 11.04C11.5409 10.4779 11.9535 9.7964 12.0281 9.0044C12.0988 8.254 11.8501 7.5551 11.5388 6.9634C11.2256 6.3679 10.7927 5.7777 10.3699 5.2275C10.2453 5.0653 10.1218 4.9068 9.9999 4.7504L9.9992 4.7495C9.8907 4.6103 9.7831 4.4722 9.6774 4.335C11.5408 3.20006 13.6231 2.45441 15.7983 2.15221C18.6484 1.75625 21.5526 2.13624 24.2049 3.25215C26.8572 4.3681 29.1595 6.1786 30.8693 8.4931C32.579 10.8075 33.633 13.5402 33.9201 16.4034C34.2073 19.2665 33.717 22.1541 32.5009 24.762C32.2675 25.2625 32.484 25.8575 32.9846 26.0909C33.4851 26.3243 34.0801 26.1078 34.3135 25.6072C35.6816 22.6733 36.2332 19.4248 35.9102 16.2038C35.5871 12.9827 34.4014 9.9084 32.4779 7.3047C30.5544 4.7009 27.9644 2.66407 24.9805 1.40867C21.9967 0.153272 18.7295 -0.274218 15.5231 0.171242C12.3167 0.616702 9.2898 1.91861 6.7612 3.93984C4.2325 5.9611 2.29577 8.6268 1.1549 11.6563C0.0140288 14.6858 -0.288741 17.9669 0.278479 21.154C0.845709 24.3411 2.26193 27.3163 4.378 29.7661C4.739 30.184 5.3705 30.2302 5.7884 29.8692Z" fill="#FF8F3F"/>
</svg>
