<svg width="15" height="15" viewBox="0 0 15 15" fill="none" xmlns="http://www.w3.org/2000/svg">
<path fill-rule="evenodd" clip-rule="evenodd" d="M10.2568 1.73039L10.2574 2.1989C11.9791 2.33383 13.1164 3.507 13.1182 5.30609L13.125 10.5722C13.1275 12.5337 11.8951 13.7406 9.91988 13.7437L5.09493 13.75C3.132 13.7525 1.88426 12.5169 1.88179 10.5497L1.875 5.34545C1.87254 3.53448 2.9697 2.36444 4.69136 2.2064L4.69074 1.73788C4.69012 1.46302 4.89376 1.25625 5.16527 1.25625C5.43679 1.25562 5.64043 1.46177 5.64104 1.73663L5.64166 2.17391L9.30712 2.16892L9.3065 1.73164C9.30588 1.45677 9.50952 1.25063 9.78103 1.25C10.0464 1.24938 10.2562 1.45552 10.2568 1.73039ZM2.82592 5.53848L12.1685 5.52598V5.30734C12.142 3.96427 11.4681 3.25962 10.2586 3.15467L10.2593 3.63568C10.2593 3.9043 10.0501 4.11731 9.78473 4.11731C9.51322 4.11794 9.30896 3.90555 9.30896 3.63693L9.30835 3.13093L5.64289 3.13593L5.64351 3.6413C5.64351 3.91054 5.44049 4.12294 5.16897 4.12294C4.89746 4.12356 4.69321 3.91179 4.69321 3.64255L4.69259 3.16154C3.48928 3.28211 2.82345 3.98925 2.8253 5.3442L2.82592 5.53848ZM9.52494 8.37768V8.38455C9.53111 8.67191 9.7656 8.88992 10.0501 8.88368C10.3278 8.87681 10.5493 8.6388 10.5431 8.35144C10.5302 8.07658 10.3074 7.85232 10.0303 7.85294C9.74647 7.85919 9.52432 8.09032 9.52494 8.37768ZM10.0346 11.1825C9.75079 11.1763 9.52186 10.9395 9.52124 10.6522C9.51507 10.3648 9.74277 10.1268 10.0266 10.1199H10.0328C10.3228 10.1199 10.5579 10.3567 10.5579 10.6503C10.5585 10.9439 10.3241 11.1819 10.0346 11.1825ZM6.98257 8.38768C6.99491 8.67503 7.23002 8.89929 7.51388 8.8868C7.79156 8.87368 8.0131 8.6363 8.00075 8.34895C7.99397 8.06784 7.76565 7.8492 7.48796 7.84982C7.2041 7.86231 6.98195 8.10032 6.98257 8.38768ZM7.51635 11.1544C7.23249 11.1669 6.998 10.9426 6.98504 10.6553C6.98504 10.3679 7.20657 10.1306 7.49043 10.1174C7.76812 10.1168 7.99705 10.3355 8.00322 10.6159C8.01618 10.9039 7.79403 11.1413 7.51635 11.1544ZM4.4402 8.40954C4.45254 8.6969 4.68765 8.92178 4.97151 8.90866C5.24919 8.89617 5.47073 8.65816 5.45777 8.37081C5.4516 8.0897 5.22328 7.87106 4.94497 7.87168C4.66112 7.88418 4.43959 8.12218 4.4402 8.40954ZM4.97398 11.1575C4.69012 11.1707 4.45563 10.9458 4.44267 10.6584C4.44205 10.3711 4.6642 10.1331 4.94806 10.1206C5.22575 10.1199 5.45468 10.3386 5.46085 10.6197C5.47381 10.907 5.25228 11.145 4.97398 11.1575Z" fill="#343F54"/>
</svg>
