<svg xmlns="http://www.w3.org/2000/svg" width="18.283" height="18.283" viewBox="0 0 18.283 18.283"><path d="M0,0H18.283V18.283H0Z" fill="none"/><path d="M15.958,12.431A8.717,8.717,0,0,1,13.269,12a.745.745,0,0,0-.769.183l-1.2,1.5a11.567,11.567,0,0,1-5.249-5.2L7.54,7.22a.777.777,0,0,0,.183-.777A8.5,8.5,0,0,1,7.3,3.754.761.761,0,0,0,6.542,3H3.907C3.5,3,3,3.183,3,3.754A13.066,13.066,0,0,0,15.958,16.712a.8.8,0,0,0,.754-.9V13.185a.761.761,0,0,0-.754-.754Z" transform="translate(-0.715 -0.715)" fill="#fff"/></svg>