<svg width="24" height="24" viewBox="0 0 24 24" fill="none" xmlns="http://www.w3.org/2000/svg">
<path d="M17 9H18C19.0609 9 20.5 8.99982 22 8.99993C22 10.4999 22 11.9391 22 13C22 14.0609 21.5786 15.0783 20.8284 15.8284C20.0783 16.5786 19.0609 17 18 17H17" stroke="#373945" stroke-width="2" stroke-linecap="round" stroke-linejoin="round"/>
<path d="M5 8H17V17C17 18.0609 16.5786 19.0783 15.8284 19.8284C15.0783 20.5786 14.0609 21 13 21H9C7.93913 21 6.92172 20.5786 6.17157 19.8284C5.42143 19.0783 5 18.0609 5 17V8Z" stroke="#373945" stroke-width="2" stroke-linecap="round" stroke-linejoin="round"/>
<path d="M7 2V5" stroke="#373945" stroke-width="2" stroke-linecap="round" stroke-linejoin="round"/>
<path d="M11 2V5" stroke="#373945" stroke-width="2" stroke-linecap="round" stroke-linejoin="round"/>
<path d="M15 2V5" stroke="#373945" stroke-width="2" stroke-linecap="round" stroke-linejoin="round"/>
</svg>
