<svg width="22" height="22" viewBox="0 0 22 22" fill="none" xmlns="http://www.w3.org/2000/svg">
<path d="M9.54788 2.53869C10.3226 1.67336 11.6774 1.67336 12.452 2.53869V2.53869C12.8468 2.97971 13.4207 3.2174 14.0117 3.18472V3.18472C15.1714 3.12061 16.1293 4.07861 16.0652 5.23827V5.23827C16.0326 5.82928 16.2703 6.40312 16.7113 6.79792V6.79792C17.5766 7.5726 17.5766 8.92741 16.7113 9.70208V9.70208C16.2703 10.0969 16.0326 10.6707 16.0652 11.2617V11.2617C16.1293 12.4214 15.1714 13.3794 14.0117 13.3153V13.3153C13.4207 13.2826 12.8468 13.5203 12.452 13.9613V13.9613C11.6774 14.8266 10.3226 14.8266 9.54788 13.9613V13.9613C9.15308 13.5203 8.57924 13.2826 7.98823 13.3153V13.3153C6.82857 13.3794 5.87057 12.4214 5.93468 11.2617V11.2617C5.96735 10.6707 5.72966 10.0969 5.28865 9.70208V9.70208C4.42331 8.92741 4.42331 7.5726 5.28865 6.79792V6.79792C5.72966 6.40312 5.96735 5.82928 5.93468 5.23827V5.23827C5.87057 4.07861 6.82857 3.12061 7.98823 3.18472V3.18472C8.57924 3.2174 9.15308 2.97971 9.54788 2.53869V2.53869Z" stroke="#343F54" stroke-width="2"/>
<path d="M13.75 7.33333L10.45 10.0833L8.25 8.25" stroke="#343F54" stroke-width="2" stroke-linecap="round" stroke-linejoin="round"/>
<path d="M7.33358 13.757L7.33337 19.25L11 16.9583L14.6667 19.25L14.6669 13.75" stroke="#343F54" stroke-width="2" stroke-linecap="round" stroke-linejoin="round"/>
</svg>
