<svg width="15" height="15" viewBox="0 0 15 15" fill="none" xmlns="http://www.w3.org/2000/svg">
<path fill-rule="evenodd" clip-rule="evenodd" d="M4.79363 1.25006H10.2124C12.3311 1.25006 13.7499 2.73694 13.7499 4.94944V10.0557C13.7499 12.2626 12.3311 13.7501 10.2124 13.7501H4.79363C2.67488 13.7501 1.24988 12.2626 1.24988 10.0557V4.94944C1.24988 2.73694 2.67488 1.25006 4.79363 1.25006ZM9.73738 9.88131C9.89363 9.88131 10.0499 9.80006 10.1374 9.65006C10.2749 9.43069 10.1999 9.14319 9.97488 9.00631L7.74988 7.68131V4.79319C7.74988 4.53756 7.54363 4.32444 7.28113 4.32444C7.02488 4.32444 6.81238 4.53756 6.81238 4.79319V7.95006C6.81238 8.11256 6.89988 8.26881 7.04363 8.35006L9.49363 9.81256C9.56863 9.86256 9.65613 9.88131 9.73738 9.88131Z" fill="#343F54"/>
</svg>
