<svg xmlns="http://www.w3.org/2000/svg" xmlns:xlink="http://www.w3.org/1999/xlink" width="140" height="140" viewBox="0 0 140 140"><defs><clipPath id="a"><circle cx="70" cy="70" r="70" transform="translate(1.05 1.05)" fill="#333e92"/></clipPath><clipPath id="b"><path d="M215.592,123.809a3.9,3.9,0,1,1-5.518,0A3.9,3.9,0,0,1,215.592,123.809Z" transform="translate(-208.932 -122.666)" fill="none"/></clipPath><clipPath id="c"><circle cx="3.901" cy="3.901" r="3.901" transform="translate(0 0)" fill="none"/></clipPath></defs><g transform="translate(-1.05 -1.05)" clip-path="url(#a)"><g transform="translate(-0.676 11.074)"><path d="M203.008,167.156c.33-.523,12.89,5.784,27-2.463s5.868,78.58,5.868,78.58l-1.145,45.065-1.6,21.762H197.968l-7.216-68.495S198.1,174.927,203.008,167.156Z" transform="translate(-145.71 -99.581)" fill="#5dcec1"/><path d="M275.821,180.172c-5.744-4.938-32.185-14.969-32.185-14.969l-4.317,7.711s1.4,95.641.678,115.341l-.01,22.048h32.269l.163-49.8c9.331-2.368,16.5-6.3,20.443-10.615,4.473-4.9,5.553-7.659,5.553-14.169S281.565,185.109,275.821,180.172Z" transform="translate(-155.016 -99.784)" fill="#fff"/><path d="M189.44,251.711c.3-.493.47-.763.47-.763V166.266s-26.441,10.03-32.185,14.968-22.448,50.607-22.606,57.114c-.63,25.829,21.833,58.415,21.833,58.415a12.948,12.948,0,0,0,2.1-1.263c-.437,6.017-1.183,15.008-1.183,15.008h35.05s.116-26.764,0-27.986C192.85,281.8,190.962,265.124,189.44,251.711Z" transform="translate(-135.047 -99.988)" fill="#fff"/><g transform="translate(97.821 114.761)"><path d="M268.856,240.156l-5.907,3.5a.442.442,0,0,1-.441,0l-6.242-3.51a.442.442,0,0,1-.225-.385V226.683a.441.441,0,0,1,.441-.441h12.149a.441.441,0,0,1,.441.441v13.094a.443.443,0,0,1-.216.379Z" transform="translate(-256.042 -226.242)" fill="#d5e1ed"/></g><g transform="translate(97.821 117.405)"><path d="M268.856,240.783l-5.907,3.5a.442.442,0,0,1-.441,0l-6.242-3.51a.442.442,0,0,1-.225-.385V229.954a.441.441,0,0,1,.441-.441h12.149a.441.441,0,0,1,.441.441V240.4a.443.443,0,0,1-.216.383Z" transform="translate(-256.042 -229.513)" fill="#b8ddff"/></g><g transform="translate(84.981 58.059)" opacity="0.5"><path d="M240.158,287.369V156.1s1.112,2.039,5.174,6.157a71.192,71.192,0,0,1,9.432,12.922l-9.173-1.775L257.506,185.4l-8.964,52.695-6.345.947,4.014,12.753Z" transform="translate(-240.158 -156.098)" fill="#8fa7d7"/></g><g transform="translate(38.65 57.979)" opacity="0.5"><path d="M195.02,162.157a71.217,71.217,0,0,0-9.433,12.922l9.173-1.775-11.915,11.991,19.222,99.383L200.193,156S199.082,158.039,195.02,162.157Z" transform="translate(-182.844 -156)" fill="#8fa7d7"/></g><g transform="translate(82.987 57.044)"><path d="M239.685,281.631h0l-1.993-126.788s2.063.885,6.125,5c5.081,5.15,8.481,14.075,8.481,14.075l-9.173-1.774,11.915,11.991-8.54,54.222-4.376,1.01,3.2,6.43Z" transform="translate(-237.692 -154.843)" fill="#fff"/></g><g transform="translate(40.523 57.044)"><path d="M202.511,280.334V154.843s-2.063.885-6.125,5C191.3,165,187.9,173.921,187.9,173.921l9.173-1.774-11.915,11.991Z" transform="translate(-185.162 -154.843)" fill="#fff"/></g><g transform="translate(57.872 75.193)"><path d="M219.12,181.3a30.915,30.915,0,0,1-12.5-2.566v-.887c.124.062,12.923,6.14,25.4-.553l.014.86A26.662,26.662,0,0,1,219.12,181.3Z" transform="translate(-206.623 -177.294)" fill="#38a595"/></g><path d="M149.52,255.483s9.545,1.833,14.509,6.8C164.029,262.278,151.658,256.094,149.52,255.483Z" transform="translate(-137.809 -117.084)" fill="#8fa7d7" opacity="0.5"/><path d="M178.426,308.109l2,2.428s-4.028,9.857-8.5,15.054l-3.626-5.043A42.942,42.942,0,0,0,178.426,308.109Z" transform="translate(-141.408 -127.168)" fill="#ffcca9"/><path d="M163.373,255.483c.23.382,3.436,3.436,4.505,6.414l-5.039-5.727Z" transform="translate(-140.361 -117.084)" fill="#8fa7d7" opacity="0.5"/><path d="M173.891,214.486c-.024-.458-2.932,37.973-4.177,43l9.658,29.54s-5.1,11.53-14.645,17.712c0,0,6.11-.913,15.731-14.2,0,0-4.811,13.745-11.607,19.548,0,0,10.69-6.338,13.821-25.58l-10.079-27.02S174.349,223.038,173.891,214.486Z" transform="translate(-140.723 -109.227)" fill="#8fa7d7" opacity="0.5"/><path d="M279.163,283.091l-4.649,1.342.71,4.166,3.939-1.521Z" transform="translate(-161.761 -122.374)" fill="#8fa7d7" opacity="0.5"/><path d="M272.466,240.553h0l-3.535-28.95,1.1,29.867c-11.858,4.5-24.634,9.881-24.634,9.881s6.787-1.749,15.121-3.971,23.822-10.92,23.822-10.92C281.181,237.392,276.961,238.877,272.466,240.553Z" transform="translate(-156.181 -108.675)" fill="#8fa7d7" opacity="0.5"/><path d="M289.385,212.5s7.465,20.093,7.545,33.139a13.509,13.509,0,0,1-4.734,10.308c-19.438,14.129-43.4,14.632-43.4,14.632s-.2,3.237-.656,3.847c0,0,42.424-2.809,50.534-21.182a12.867,12.867,0,0,0,1.425-7.528C299.306,237.05,294.487,224.874,289.385,212.5Z" transform="translate(-156.706 -108.848)" fill="#8fa7d7" opacity="0.1"/><path d="M149.562,203.366c.3-.771-12.09,30.774-11.981,42.128.229,23.835,17.829,53.9,21.456,57.113l-2.1,1.263s-23.366-34.705-21.833-58.415C135.408,240.768,135.977,238.7,149.562,203.366Z" transform="translate(-135.033 -107.094)" fill="#8fa7d7" opacity="0.1"/><path d="M242.508,275.776c1.374-13.974-2.643-22.583-2.176-22.793,4.537-2.045,15.81-6.478,24.893-10l.387-20.584-46.391-1.878-1.053,68.523,46.225-1.881.281-14.953a174.239,174.239,0,0,1-22.166,3.566Z" transform="translate(-150.963 -110.385)" fill="#ae376d"/><path d="M254.587,221.7l.022-.833-12.584-.72L242,221.189Z" transform="translate(-155.531 -110.312)" fill="#a1b5bf"/><path d="M243.891,223.086a.263.263,0,1,1-.263-.263.263.263,0,0,1,.263.263Z" transform="translate(-155.792 -110.826)" fill="#a1b5bf"/><path d="M256.273,223.632a.16.16,0,1,1-.16-.16A.16.16,0,0,1,256.273,223.632Z" transform="translate(-158.204 -110.95)" fill="#a1b5bf"/><g transform="translate(86.043 31.382)"><path d="M246.141,132.24c-1.321,4.764-3.656,8.414-4.669,8.132,0,0,.714-3.033,1.665-7.884,1.1-5.628,1.26-9.6,3.563-9.382C247.747,123.2,247.463,127.477,246.141,132.24Z" transform="translate(-241.472 -123.098)" fill="#f0ba92"/></g><g transform="translate(86.043 32.105)" opacity="0.6"><path d="M244.372,130.44c-1.2,4.794-1.887,10.384-2.9,10.1,0,0,1.01-4.326,1.961-9.177,1.1-5.627.992-7.573,3.294-7.359C246.727,124.007,245.832,124.614,244.372,130.44Z" transform="translate(-241.472 -123.992)" fill="#d88d64"/></g><g transform="translate(49.119 31.382)"><path d="M196.99,132.24c1.321,4.764,3.515,8.443,4.528,8.163,0,0-1.078-3.93-1.718-8.059-.878-5.667-1.065-9.451-3.369-9.237C195.385,123.2,195.669,127.477,196.99,132.24Z" transform="translate(-195.795 -123.097)" fill="#f0ba92"/></g><g transform="translate(49.586 32.135)" opacity="0.6"><path d="M198.16,129.931c1.2,4.8,2.456,10.936,3.469,10.656,0,0-1.078-4.937-2.028-9.788-1.1-5.627-.924-6.963-3.227-6.749C196.373,124.05,196.7,124.106,198.16,129.931Z" transform="translate(-196.373 -124.029)" fill="#d88d64"/></g><g transform="translate(57.866 54.509)"><path d="M231.912,165.4s-1.744,4.6-12.735,4.6-12.561-4.324-12.561-4.324V151.707h25.121Z" transform="translate(-206.616 -151.707)" fill="#f0ba92"/></g><g transform="translate(57.866 50.846)" opacity="0.6"><path d="M231.753,154.388c-2.268,4.738-11.143,8.46-12.577,8.46s-8.971-2.859-12.561-8.381v-7.292h25.121Z" transform="translate(-206.616 -147.176)" fill="#d88d64"/></g><g transform="translate(50.239 8.291)"><path d="M232.985,134.9c-4.186,13.758-15.616,13.988-15.616,13.988s-12.074-.032-15.681-14.316c-2.381-9.425-8.108-23.858-1.242-34.553,3.887-6.053,32.143-8.473,35.472,0S235.44,126.832,232.985,134.9Z" transform="translate(-197.181 -94.533)" fill="#ffcca9"/></g><g transform="translate(63.946 47.708)"><path d="M226.823,143.8c.462.386-.964,5.362-6.135,5.415-4.387.045-6.587-4.464-6.19-5.136.492-.833,2.239-.27,6.013-.27S226.319,143.375,226.823,143.8Z" transform="translate(-214.197 -143.355)" fill="#fff"/><path d="M220.563,149.407a6.91,6.91,0,0,1-5.853-3.552c-.4-.686-.733-1.564-.493-1.971.4-.681,1.339-.622,3.044-.516.846.053,1.9.12,3.19.12,1.541,0,2.775-.071,3.766-.129,1.556-.088,2.335-.135,2.71.178h0c.354.3.082,1.2-.051,1.571a6.528,6.528,0,0,1-6.245,4.3Zm-4.751-5.592c-.616,0-1,.076-1.154.329a3.013,3.013,0,0,0,.658,1.719,6.429,6.429,0,0,0,5.246,3.031h.063a6,6,0,0,0,5.2-2.8,3.928,3.928,0,0,0,.757-2.176,6.7,6.7,0,0,0-2.331-.045c-1,.058-2.241.129-3.8.129-1.306,0-2.369-.067-3.222-.12-.554-.037-1.024-.067-1.411-.067Z" transform="translate(-214.137 -143.294)" fill="#d3976e"/></g><g transform="translate(69.281 36.828)"><path d="M221.9,136.955a2.529,2.529,0,0,1-1-3.029,18.406,18.406,0,0,0,.536-4.091l.513.011a18.51,18.51,0,0,1-.563,4.244,2.02,2.02,0,0,0,.813,2.449Z" transform="translate(-220.736 -129.835)" fill="#d88d64"/></g><path d="M240.455,264.825l-4.738.719c-6.047.526-8.285-4.135-13.627-3.444s-4.7,2.811-4.7,2.811c-3.54.1-2.608,5-2.608,5-1.674,2.491.068,5.368.068,5.368-1.219,1.724.4,4.334.4,4.334.455,2.839,3.9,5.184,7.6,5.574.125.015.251.022.378.031s.264.019.4.023.28,0,.42,0q.293,0,.587-.025h.07c.166-.013.334-.022.5-.044,4.468-.609,16.782-5.593,16.782-5.593C242.178,269.957,240.455,264.825,240.455,264.825Z" transform="translate(-150.174 -118.339)" fill="#ffcca9"/><path d="M218.167,265.594s3.067.6,4.727.715a63.244,63.244,0,0,1,6.418.973s-4.985-.416-6.451-.509C221.746,266.7,217.7,265.638,218.167,265.594Z" transform="translate(-150.956 -119.022)" fill="#d88d64"/><path d="M218.487,272.59a9.126,9.126,0,0,1-2.911-1.818,4.174,4.174,0,0,1-.7-1.85,7.588,7.588,0,0,0,.047,2.309Z" transform="translate(-150.317 -119.658)" fill="#d88d64"/><path d="M218.444,279.224a19.529,19.529,0,0,1-3.011-1.641,4.633,4.633,0,0,1-1.321-1.913,5.544,5.544,0,0,0,.765,2.2Z" transform="translate(-150.186 -120.952)" fill="#d88d64"/><path d="M218.925,284.568a19.468,19.468,0,0,1-3.011-1.641,5.369,5.369,0,0,1-1.409-2.054,6.107,6.107,0,0,0,.853,2.336Z" transform="translate(-150.262 -121.949)" fill="#d88d64"/><path d="M218.619,264.044s-.542,1.247.437,1.418l.158.223-1.04-.388a1.609,1.609,0,0,1,.445-1.253Z" transform="translate(-150.963 -118.724)" fill="#d88d64"/><g transform="translate(40.271 87.033)"><path d="M203.588,217.419c-.28-14.484-2.449-25.478-9.368-25.478-7.03,0-9.131,11.354-9.355,26.174v.006l-.017.787c0,2.874,1.53,3.592,3.482,3.9a17.3,17.3,0,0,0,2.149.175,1.171,1.171,0,0,0,2.242-.474v-.957a1.173,1.173,0,0,0-1.173-1.173,1.159,1.159,0,0,0-1.141,1.013c-1.557-.078-3.478-.412-4.1-1.563-.609-1.124-.255-3.509-.2-5.119.412-12.309,2.413-21.567,8.125-21.567s7.707,9.232,8.123,21.515c.052,1.543.32,3.8-.255,4.955-.522,1.042-1.928,1.5-3.324,1.69a1.17,1.17,0,0,0-2.291.449l.115.951a1.172,1.172,0,0,0,2.295.163c2.238-.31,4.773-1.3,4.692-4.235l-.014-1.154C203.578,217.454,203.584,217.437,203.588,217.419Z" transform="translate(-184.85 -191.941)" fill="#383f47"/></g><g transform="translate(48.623 74.864)"><path d="M196.331,189.654h-1.149V177.109l1.149-.222Z" transform="translate(-195.182 -176.887)" fill="#383f47"/></g><g transform="translate(89.131 62.066)"><path d="M258.309,195.261c-.593-16.285-5.791-24.634-9.124-29.247-3.163-4.378-3.893-4.959-3.893-4.959.542.253,13.331,6.5,14.339,34.157Z" transform="translate(-245.292 -161.055)" fill="#383f47"/></g><g transform="translate(89.112 62.047)"><path d="M259.044,195.564c-.885-16.935-4.93-24.352-8.263-28.964-3.163-4.379-5.512-5.568-5.512-5.568.543.253,13.35,7.019,14.358,34.677Z" transform="translate(-245.269 -161.032)" fill="#1a2026"/></g><g transform="translate(97.142 95.492)"><g transform="translate(0.162 0.163)"><path d="M266.6,208.207a5.6,5.6,0,1,1-5.6-5.6A5.6,5.6,0,0,1,266.6,208.207Z" transform="translate(-255.403 -202.607)" fill="#bcbcbc"/></g><path d="M260.965,213.932a5.764,5.764,0,1,1,5.764-5.764A5.764,5.764,0,0,1,260.965,213.932Zm0-11.2a5.438,5.438,0,1,0,5.437,5.438,5.438,5.438,0,0,0-5.437-5.438Z" transform="translate(-255.202 -202.405)" fill="#333"/></g><g transform="translate(104.269 99.283)" opacity="0.3"><path d="M265.433,214.135l-1.415-2.976,1-2.741,3.09-1.323s1.8,3.962-2.673,7.04Z" transform="translate(-264.018 -207.095)" fill="#fff"/></g><g transform="translate(100.383 99.017)"><path d="M264.246,209.411a2.521,2.521,0,1,1-2.518-2.645A2.584,2.584,0,0,1,264.246,209.411Z" transform="translate(-259.211 -206.766)" fill="#635b53"/></g><g transform="translate(97.085 95.457)" opacity="0.4"><path d="M260.067,202.362l.309,3.4-1.884,2.227-3.356.172s-.333-4.458,4.931-5.8Z" transform="translate(-255.132 -202.362)" fill="#fff"/></g><g transform="translate(100.504 98.855)"><g transform="translate(0.163 0.162)"><path d="M264.039,209a2.238,2.238,0,1,1-2.238-2.238A2.238,2.238,0,0,1,264.039,209Z" transform="translate(-259.563 -206.766)" fill="#d3d3d3"/></g><path d="M261.762,211.366a2.4,2.4,0,1,1,2.4-2.4,2.4,2.4,0,0,1-2.4,2.4Zm0-4.475a2.075,2.075,0,1,0,2.075,2.075A2.075,2.075,0,0,0,261.762,206.891Z" transform="translate(-259.361 -206.565)" fill="#a8a6a0"/></g><g transform="translate(102.021 100.639)"><path d="M263,209.652a.88.88,0,1,1-.88-.88.88.88,0,0,1,.88.88Z" transform="translate(-261.237 -208.772)" fill="#bababa"/></g><g transform="translate(102.021 100.376)"><circle cx="0.88" cy="0.88" r="0.88" transform="translate(0 0)" fill="#fff"/></g><g transform="translate(46.23 115.957)"><rect width="0.968" height="2.266" rx="0.446" fill="#aaa9a2"/></g><g transform="translate(52.587 115.916)"><rect width="0.968" height="2.266" rx="0.446" transform="translate(0 0.091) rotate(-5.391)" fill="#aaa9a2"/></g><g transform="translate(100.95 99.335)" opacity="0.4"><path d="M261.292,207.159a1.952,1.952,0,0,0-1.379,1.622l1.258.092.332-.331Z" transform="translate(-259.913 -207.159)" fill="#fff"/></g><g transform="translate(103.428 100.899)" opacity="0.4"><path d="M263.653,211.092a1.95,1.95,0,0,0,.733-2l-1.212.348-.2.426Z" transform="translate(-262.978 -209.094)" fill="#fff"/></g><g transform="translate(49.119 10.706)"><path d="M198.889,125.912s-2.416-9.574-2.847-14.409-.939-11.328,4.509-13.539,3.772,4.539,3.772,4.539-4.308,2.9-5.17,10.152C198.686,116.6,198.889,125.912,198.889,125.912Z" transform="translate(-195.795 -97.52)" fill="#2a445d"/></g><g transform="translate(83.011 10.706)"><path d="M243.133,125.766s2.681-9.429,3.112-14.263.939-11.328-4.508-13.539-3.773,4.539-3.773,4.539,4.308,2.9,5.17,10.152C243.6,116.6,243.133,125.766,243.133,125.766Z" transform="translate(-237.722 -97.52)" fill="#2a445d"/></g><g transform="translate(53.781)"><path d="M231.756,102.288s-6.636,1.058-11.083-1.031c-1.3-.612-7.624,2.078-10.529,1.534a11.369,11.369,0,0,1-8.114-6.031c-.32-1.362-1.652-3.3,2.369-6.318,5.562-4.172,12.422-3.16,13.57-4.381a4.829,4.829,0,0,1,4.524-1.744c5.96.6,6.252,4.093,9.6,4.617,4.362.682,5.834,2.441,6.117,6.1C238.753,102,231.756,102.288,231.756,102.288Z" transform="translate(-201.562 -84.277)" fill="#2a445d"/></g><g transform="translate(57.121 0.851)"><path d="M219.911,85.329s-1.867,1.34-6.558,6.8-7.132,5.122-7.659,5.218c0,0,4.048.7,8.329-4.931a62.118,62.118,0,0,1,5.888-7.087Z" transform="translate(-205.694 -85.329)" fill="#1f384c"/></g><g transform="translate(78.697 14.668)"><path d="M232.385,105.585s7.827.925,11.237-3.163c0,0-.719,4.276-11.058,3.235Z" transform="translate(-232.385 -102.422)" fill="#1f384c"/></g><g transform="translate(53.997 10.041)"><path d="M213.659,104.6c-9.222,1.289-11.873-6.323-11.829-6.182a10.491,10.491,0,0,0,7.81,7.087,12.16,12.16,0,0,0,2.4.411c.434.033.7.032.7.032h.017c8.819.077,15.959-9.249,15.959-9.249C222.734,101.849,217.425,103.86,213.659,104.6Z" transform="translate(-201.829 -96.698)" fill="#1f384c"/></g><g transform="translate(59.738 31.033)"><g clip-path="url(#b)"><path d="M215.286,132.067l3.047-3.047v3.047Z" transform="translate(-210.15 -123.884)" fill="#fff"/><path d="M210.058,130.76l-1.6-1.6v-3.92l3.047-3.047h3.92l1.6,1.6v3.92l-3.047,3.047Z" transform="translate(-208.842 -122.576)" fill="#fff"/><path d="M211.508,122.2l-3.047,3.047V122.2Z" transform="translate(-208.842 -122.576)" fill="#fff"/></g></g><g transform="translate(73.65 31.303)"><g clip-path="url(#c)"><path d="M232.495,132.4l3.047-3.047V132.4Z" transform="translate(-227.358 -124.218)" fill="#fff"/><path d="M227.267,131.094l-1.6-1.6v-3.92l3.047-3.047h3.92l1.6,1.6v3.92l-3.047,3.047Z" transform="translate(-226.051 -122.91)" fill="#fff"/><path d="M228.717,122.529l-3.047,3.047v-3.047Z" transform="translate(-226.051 -122.91)" fill="#fff"/></g></g><g transform="translate(76.829 26.638)"><path d="M234.809,120.075a5.192,5.192,0,0,0-3.786-.923.839.839,0,0,1-.926-1.031h0a.838.838,0,0,1,.552-.613,4.948,4.948,0,0,1,5.268,1.236.834.834,0,0,1,.2.767l-.013.055a.841.841,0,0,1-1.3.509Z" transform="translate(-230.074 -117.229)" fill="#2a445d"/></g><g transform="translate(62.653 33.8)"><g transform="translate(13.916 0.102)"><ellipse cx="0.987" cy="1.257" rx="0.987" ry="1.257" transform="translate(0 0)" fill="#210601"/></g><path d="M213.524,126.089a1.293,1.293,0,1,0,.987,1.257A1.146,1.146,0,0,0,213.524,126.089Z" transform="translate(-212.537 -126.089)" fill="#210601"/></g><g transform="translate(50.32 30.886)"><path d="M228.466,125.478a4.148,4.148,0,0,0-8.055.639h0a3.915,3.915,0,0,0-5.713-.226,4.153,4.153,0,0,0-8.043-.518c-6.929-2.455-8.636-2.778-9.094-2.691-.137.026-.253.231-.276.344l.357.145a.613.613,0,0,1,.071-.09c.6-.07,4.91,1.331,8.811,2.712a4.158,4.158,0,0,0,7.68,2.927,1.185,1.185,0,0,0,.353-.12,1.123,1.123,0,0,0,.323-.241,1.317,1.317,0,0,0,.326-.707,2.007,2.007,0,0,0-.244-1.4,3.473,3.473,0,0,1,5.15.184,2.1,2.1,0,0,0-.192,1.315,1.315,1.315,0,0,0,.326.706,1.1,1.1,0,0,0,.323.241,1.189,1.189,0,0,0,.354.12A4.159,4.159,0,0,0,228.6,125.9c3.96-1.4,8.263-2.833,8.754-2.715-.016,0,.443-.182.443-.182C237.655,122.71,237.469,122.288,228.466,125.478ZM210.6,130.385a3.73,3.73,0,1,1,3.73-3.73A3.73,3.73,0,0,1,210.6,130.385Zm4.157-2.52a.771.771,0,0,1-.179.246.734.734,0,0,1-.1.063,4.129,4.129,0,0,0,.283-1.392.856.856,0,0,1,.089.244A1.763,1.763,0,0,1,214.757,127.865Zm5.781.348a.762.762,0,0,1-.179-.246,1.763,1.763,0,0,1-.09-.839.864.864,0,0,1,.089-.245,4.152,4.152,0,0,0,.284,1.393.681.681,0,0,1-.1-.063Zm3.978,2.273a3.729,3.729,0,1,1,3.73-3.729,3.729,3.729,0,0,1-3.73,3.729Z" transform="translate(-197.281 -122.484)" fill="#302420"/></g><g transform="translate(58.304 26.536)"><path d="M208.485,119.948a5.188,5.188,0,0,1,3.786-.922A.84.84,0,0,0,213.2,118h0a.838.838,0,0,0-.552-.613,4.948,4.948,0,0,0-5.268,1.236.834.834,0,0,0-.2.767l.013.054a.841.841,0,0,0,1.292.5Z" transform="translate(-207.158 -117.103)" fill="#2a445d"/></g><g transform="translate(41.326 87.725)"><path d="M186.211,218.119s-1.088-22.113,6.38-24.985a5.349,5.349,0,0,1,4.475.359c3.955,2.085,4.938,9.655,5.241,13.092.394,4.452,1,10.927.213,12.739,0,0,.278-10.286-1.445-17.789s-4.972-8.328-7.049-8.211-4.492,2.445-5.84,6.991S186.211,218.119,186.211,218.119Z" transform="translate(-186.155 -192.797)" fill="#1a2026"/></g><g transform="translate(40.303 114.676)"><path d="M184.89,226.139a3.685,3.685,0,0,0,2.5,2.412,3.232,3.232,0,0,0,3.024-.611,4.254,4.254,0,0,0,.071,1.591S185.067,230.113,184.89,226.139Z" transform="translate(-184.89 -226.136)" fill="#1a2026"/></g><g transform="translate(54.199 113.17)"><path d="M206.883,224.275a3.7,3.7,0,0,1-.315,1.7,3.349,3.349,0,0,1-2.055,1.843c-1.8.953-2.434-.321-2.434-.321a5.363,5.363,0,0,1,.119,1.563S207.286,228.891,206.883,224.275Z" transform="translate(-202.079 -224.273)" fill="#1a2026"/></g><g transform="translate(48.623 74.864)"><path d="M195.182,177.109l1.149-.222-.072.586-1.077.209Z" transform="translate(-195.182 -176.887)" fill="#1a2026"/></g><g transform="translate(41.86 65.835)" opacity="0.1"><g transform="translate(0 8.806)"><path d="M195.651,190.333l.225-13.721-1.149.222-.225,13.585c-6.215,1.064-7.46,12.1-7.673,26.179v.006l-.017.787c0,2.874,1.53,3.592,3.482,3.9a17.132,17.132,0,0,0,2.149.175,1.171,1.171,0,0,0,2.242-.474v-.957a1.173,1.173,0,0,0-1.173-1.173,1.159,1.159,0,0,0-1.141,1.013c-1.557-.078-3.478-.412-4.1-1.563-.609-1.124-.255-3.508-.2-5.119.412-12.309,1.749-21.664,7.461-21.664s8.372,9.329,8.788,21.612c.052,1.543.32,3.806-.255,4.955-.522,1.042-1.927,1.5-3.324,1.69a1.17,1.17,0,0,0-2.291.449l.115.951a1.172,1.172,0,0,0,2.3.163c2.238-.31,4.773-1.3,4.692-4.234l-.015-1.154a.211.211,0,0,1,.015-.053C205.275,201.511,202.466,190.473,195.651,190.333Z" transform="translate(-186.815 -176.612)" fill="#0e3368"/></g><g transform="translate(50.198)"><path d="M263.225,199.334c-1.157-27.189-13.772-33.365-14.312-33.616,0,0,.73.58,3.893,4.959,3.294,4.56,8.408,12.776,9.1,28.692a5.58,5.58,0,1,0,1.319-.034Z" transform="translate(-248.913 -165.718)" fill="#0e3368"/></g><path d="M265.62,284.3l-.228,15.068-41.906,1.6h0l-.064,5.3,44.836-1.9V283.645Z" transform="translate(-193.83 -188.316)" fill="#0e3368"/></g></g></g></svg>