<svg width="20" height="20" viewBox="0 0 20 20" fill="none" xmlns="http://www.w3.org/2000/svg">
<path d="M5.94151 18.2497L3.70324 18.2497C3.2288 18.258 2.76778 18.0945 2.40772 17.7903C2.04766 17.4862 1.81361 17.0625 1.75 16.5997L1.75 10.8248C1.81361 10.3621 2.04766 9.93839 2.40772 9.63423C2.76779 9.33007 3.2288 9.16661 3.70324 9.17487L5.94151 9.17487M11.8096 7.5249L11.8096 4.22496C11.8096 3.56856 11.5447 2.93904 11.073 2.4749C10.6014 2.01075 9.96171 1.75 9.29472 1.75L5.94151 9.17487L5.94151 18.2497L15.3976 18.2497C15.8019 18.2542 16.1943 18.1147 16.5024 17.857C16.8105 17.5993 17.0135 17.2407 17.0742 16.8472L18.231 9.42236C18.2675 9.18589 18.2513 8.94443 18.1835 8.71473C18.1158 8.48503 17.9981 8.27258 17.8386 8.09209C17.6791 7.9116 17.4816 7.76739 17.2599 7.66945C17.0382 7.57151 16.7974 7.52219 16.5544 7.5249L11.8096 7.5249Z" stroke="#009B51" stroke-width="2" stroke-linecap="round" stroke-linejoin="round"/>
</svg>
