<svg width="20" height="20" viewBox="0 0 20 20" fill="none" xmlns="http://www.w3.org/2000/svg">
<path fill-rule="evenodd" clip-rule="evenodd" d="M6.50833 1.66663H13.4925C16.0667 1.66663 17.5 3.14996 17.5 5.69163V14.3C17.5 16.8833 16.0667 18.3333 13.4925 18.3333H6.50833C3.975 18.3333 2.5 16.8833 2.5 14.3V5.69163C2.5 3.14996 3.975 1.66663 6.50833 1.66663ZM6.73333 5.54996V5.54163H9.22417C9.58333 5.54163 9.875 5.83329 9.875 6.19079C9.875 6.55829 9.58333 6.84996 9.22417 6.84996H6.73333C6.37417 6.84996 6.08333 6.55829 6.08333 6.19996C6.08333 5.84163 6.37417 5.54996 6.73333 5.54996ZM6.73333 10.6166H13.2667C13.625 10.6166 13.9167 10.325 13.9167 9.96663C13.9167 9.60829 13.625 9.31579 13.2667 9.31579H6.73333C6.37417 9.31579 6.08333 9.60829 6.08333 9.96663C6.08333 10.325 6.37417 10.6166 6.73333 10.6166ZM6.73333 14.425H13.2667C13.5992 14.3916 13.85 14.1075 13.85 13.775C13.85 13.4333 13.5992 13.15 13.2667 13.1166H6.73333C6.48333 13.0916 6.24167 13.2083 6.10833 13.425C5.975 13.6333 5.975 13.9083 6.10833 14.125C6.24167 14.3333 6.48333 14.4583 6.73333 14.425Z" fill="#343F54"/>
</svg>
