<svg width="23" height="23" viewBox="0 0 23 23" fill="none" xmlns="http://www.w3.org/2000/svg">
<path d="M0.00180081 22.1464C0.195088 21.5911 0.392577 21.0365 0.581063 20.4794C0.899207 19.5376 1.20595 18.5915 1.52649 17.6503C2.07754 16.0325 3.20125 15.0552 4.8652 14.6878C6.06934 14.4219 7.27289 14.1494 8.47823 13.8889C8.6235 13.8576 8.67512 13.8054 8.67212 13.6554C8.66312 13.2063 8.66312 12.7567 8.67212 12.3077C8.67512 12.175 8.6211 12.1096 8.51785 12.0424C6.72004 10.8802 5.80282 9.22703 5.78121 7.08581C5.77161 6.14996 5.77641 5.21412 5.78722 4.27767C5.79562 3.55492 6.05254 2.91502 6.51054 2.36215C7.9722 0.597907 9.86126 -0.160856 12.1321 0.0282348C13.8921 0.174705 15.3273 0.95868 16.4576 2.30873C16.9451 2.891 17.2212 3.55852 17.2248 4.32209C17.2302 5.37799 17.2674 6.4363 17.208 7.4886C17.0981 9.43653 16.1755 10.9391 14.5482 12.0058C14.3891 12.1102 14.3297 12.2117 14.3363 12.3978C14.3513 12.8017 14.3483 13.2063 14.3375 13.6103C14.3333 13.7784 14.3687 13.8528 14.5542 13.8925C15.7967 14.1584 17.0381 14.4327 18.2759 14.7221C19.8774 15.0966 20.9441 16.0793 21.4759 17.6299C21.9657 19.0579 22.4345 20.4938 22.9118 21.9267C23.096 22.4802 23.0126 22.7041 22.5132 23H22.1536C21.8511 22.8644 21.7112 22.6152 21.6116 22.3085C21.1548 20.9014 20.6968 19.4937 20.2051 18.0987C20.0689 17.7115 19.8606 17.3303 19.6079 17.0074C19.0172 16.251 18.1594 16.0115 17.2308 15.889C17.2308 16.338 17.2386 16.7642 17.2266 17.1892C17.2218 17.3549 17.2824 17.4144 17.4343 17.4684C18.5766 17.8772 19.2573 18.6864 19.369 19.8959C19.438 20.6385 19.3852 21.3919 19.405 22.1398C19.4158 22.554 19.2723 22.8506 18.8737 23.0006H17.8401C17.7818 22.9694 17.7218 22.9412 17.666 22.907C17.4361 22.7653 17.3214 22.5588 17.3352 22.2881C17.3484 22.0258 17.4811 21.8343 17.7146 21.7226C17.8131 21.6758 17.9265 21.6596 18.04 21.6278C18.04 21.0935 18.0754 20.5533 18.0316 20.0196C17.9673 19.2368 17.343 18.6858 16.5801 18.6744C15.8063 18.6629 15.1587 19.2056 15.086 19.9956C15.0362 20.5358 15.0764 21.0845 15.0764 21.6284C15.5878 21.7436 15.816 21.9939 15.7787 22.3979C15.7499 22.7131 15.538 22.8764 15.2787 23.0006H14.245C13.8459 22.8518 13.6988 22.5588 13.7096 22.1422C13.7258 21.5209 13.7132 20.899 13.7138 20.2777C13.7156 18.9025 14.4167 17.9108 15.7181 17.4528C15.8346 17.412 15.8862 17.3657 15.8844 17.2361C15.8772 16.7342 15.8778 16.2324 15.8844 15.7311C15.8862 15.5979 15.8334 15.5535 15.7091 15.5276C15.1971 15.4202 14.6862 15.3043 14.1772 15.1843C14.0373 15.1513 13.9659 15.1939 13.8933 15.3157C13.3176 16.2876 12.7348 17.2559 12.1525 18.2241C11.7875 18.831 11.2197 18.831 10.8547 18.2241C10.2724 17.2559 9.68898 16.2882 9.11272 15.3169C9.04069 15.1957 8.97106 15.1525 8.82939 15.1861C8.32757 15.3067 7.82514 15.4244 7.31911 15.524C7.15343 15.5565 7.12222 15.6291 7.12282 15.7786C7.12822 16.7294 7.12942 17.6809 7.12162 18.6317C7.12042 18.8022 7.16544 18.8881 7.32991 18.9667C8.13188 19.3527 8.56767 20.0082 8.56107 20.8948C8.55387 21.8006 8.09826 22.4544 7.26929 22.8301C7.10181 22.9058 6.91753 22.9454 6.74105 23.0018H6.15698C6.13057 22.9892 6.10596 22.9712 6.07835 22.9652C5.14673 22.7659 4.46002 22.0564 4.35797 21.1842C4.24092 20.1865 4.70553 19.3581 5.63295 18.9379C5.76741 18.8773 5.77941 18.7968 5.77881 18.678C5.77641 17.8165 5.77761 16.9557 5.77701 16.0943C5.77701 16.0295 5.76921 15.9647 5.76321 15.874C5.5255 15.9274 5.3088 15.9779 5.0915 16.0247C3.92818 16.2744 3.16943 16.9731 2.79426 18.0951C2.32485 19.4991 1.85304 20.902 1.39623 22.3097C1.29659 22.617 1.15552 22.8656 0.853586 23.0018H0.494023C0.268922 22.8974 0.108649 22.7281 0 22.5078C0 22.3877 0 22.2683 0 22.1482L0.00180081 22.1464ZM11.4958 11.5682C11.8067 11.5279 12.1213 11.5057 12.428 11.4451C14.4011 11.0513 15.8976 9.20242 15.8772 7.18726C15.8766 7.12183 15.8304 7.01558 15.7817 6.99877C15.2103 6.80728 14.8093 6.39128 14.4149 5.97048C14.2931 5.84021 14.1934 5.82461 14.0277 5.88644C12.3632 6.50473 10.6914 6.50773 9.02448 5.90084C8.82159 5.82701 8.70514 5.84922 8.56347 6.00229C8.1811 6.41469 7.78372 6.81148 7.22847 6.99937C7.17745 7.01678 7.13182 7.13683 7.13242 7.20887C7.14443 9.59621 9.10131 11.5387 11.4958 11.5682ZM15.8178 5.49265C15.8382 5.47944 15.8586 5.46624 15.8796 5.45363C15.8796 5.08025 15.8838 4.70627 15.8784 4.33289C15.8724 3.91329 15.7229 3.54532 15.4606 3.22056C14.574 2.12264 13.4299 1.48993 12.024 1.37108C10.1872 1.2156 8.65771 1.82189 7.49979 3.28539C7.27049 3.57473 7.14323 3.90849 7.13363 4.27887C7.12462 4.63784 7.12762 4.99741 7.12762 5.35638C7.12762 5.3948 7.14503 5.43382 7.16364 5.50946C7.45597 5.21351 7.72249 4.94158 7.99081 4.67146C8.39239 4.26806 8.56527 4.24525 9.08511 4.47396C10.692 5.1817 12.3038 5.1853 13.9125 4.47816C14.4491 4.24225 14.607 4.26146 15.0248 4.67986C15.2925 4.94759 15.553 5.22192 15.8166 5.49265H15.8178ZM10.0161 12.6949C10.0161 13.1685 10.0107 13.6013 10.0203 14.0341C10.0227 14.1392 10.0551 14.2556 10.1086 14.3463C10.4747 14.9712 10.8505 15.5913 11.2227 16.2126C11.3097 16.3578 11.3968 16.5031 11.4946 16.6652C11.53 16.6232 11.551 16.604 11.5648 16.5806C12.0228 15.8188 12.4808 15.057 12.937 14.2947C12.9629 14.2514 12.9893 14.1992 12.9893 14.1506C12.9929 13.6734 12.9917 13.1967 12.9917 12.6979C11.9946 12.9506 11.0186 12.9554 10.0161 12.6949ZM6.44992 21.6512C6.87071 21.6512 7.22126 21.3024 7.22187 20.8828C7.22187 20.4614 6.87611 20.1168 6.45172 20.1168C6.02552 20.1168 5.68157 20.4578 5.68097 20.881C5.68037 21.3012 6.02853 21.6506 6.44992 21.6512Z" fill="#333E92"/>
</svg>
