<svg width="30" height="30" viewBox="0 0 30 30" fill="none" xmlns="http://www.w3.org/2000/svg">
<circle cx="15" cy="15" r="14.5" fill="white" stroke="#FF0000"/>
<path fill-rule="evenodd" clip-rule="evenodd" d="M12.7428 9.38244C11.6867 9.57891 10.917 10.5427 10.7916 11.6891L9.85718 20.231H20.1429L19.2073 11.6775C19.0825 10.5369 18.32 9.57469 17.2695 9.37683C15.6942 9.08025 14.3817 9.07748 12.7428 9.38244ZM13.5409 12.3718C13.5849 11.9924 13.335 11.6464 12.9827 11.5989C12.6304 11.5515 12.3091 11.8206 12.2651 12.2001L11.6835 17.2111C11.6394 17.5904 11.8893 17.9365 12.2416 17.9839C12.5939 18.0313 12.9152 17.7622 12.9592 17.3827L13.5409 12.3718Z" fill="#FF0101"/>
<path fill-rule="evenodd" clip-rule="evenodd" d="M20.7858 23.0001H9.21429V21.6155H20.7858V23.0001Z" fill="#FF0101"/>
<path d="M7.92858 14.6923C7.92858 14.9257 7.93835 15.1566 7.95738 15.3846H6V14H7.95738C7.93835 14.228 7.92858 14.4589 7.92858 14.6923Z" fill="#FF0101"/>
<path d="M9.22217 10.3005C8.97538 10.6763 8.7595 11.0772 8.57834 11.499L6.88422 10.4457L7.52708 9.24658L9.22217 10.3005Z" fill="#FF0101"/>
<path d="M12.0349 7.77676C11.6432 7.97185 11.2709 8.2044 10.922 8.47011L9.94336 6.6447L11.0568 5.95239L12.0349 7.77676Z" fill="#FF0101"/>
<path d="M15 7.07692C14.7833 7.07692 14.5689 7.08745 14.3572 7.10794V5H15.6429V7.10794C15.4311 7.08745 15.2167 7.07692 15 7.07692Z" fill="#FF0101"/>
<path d="M19.0782 8.47011C18.7292 8.2044 18.357 7.97185 17.9653 7.77676L18.9434 5.95239L20.0568 6.6447L19.0782 8.47011Z" fill="#FF0101"/>
<path d="M21.4216 11.499C21.2404 11.0772 21.0246 10.6763 20.7778 10.3005L22.4729 9.24658L23.1157 10.4457L21.4216 11.499Z" fill="#FF0101"/>
<path d="M22.0715 14.6923C22.0715 14.4589 22.0617 14.228 22.0427 14H24V15.3846H22.0427C22.0617 15.1566 22.0715 14.9257 22.0715 14.6923Z" fill="#FF0101"/>
</svg>
