<svg width="9" height="8" viewBox="0 0 9 8" fill="none" xmlns="http://www.w3.org/2000/svg">
<path d="M4.03236 0.262322L3.07071 2.21213L0.919143 2.52581C0.533304 2.58177 0.378674 3.05745 0.658481 3.32989L2.21509 4.84674L1.84692 6.98947C1.78065 7.37678 2.18858 7.6669 2.53024 7.48576L4.45502 6.47404L6.3798 7.48576C6.72146 7.66542 7.12938 7.37678 7.06311 6.98947L6.69495 4.84674L8.25156 3.32989C8.53136 3.05745 8.37673 2.58177 7.99089 2.52581L5.83933 2.21213L4.87768 0.262322C4.79143 0.0883565 4.62327 0.000362215 4.45502 1.11895e-06C4.28713 -0.000359187 4.11916 0.0865306 4.03236 0.262322Z" fill="#DBDBDB"/>
</svg>
