<svg width="23" height="23" viewBox="0 0 23 23" fill="none" xmlns="http://www.w3.org/2000/svg">
<g clip-path="url(#clip0_99_425)">
<path d="M-0.000992024 10.1531C-0.000388938 10.1531 0.000145057 10.1527 0.000329418 10.1521C0.0703693 9.93396 0.117183 9.7045 0.214856 9.49897C0.652928 8.58262 1.39105 8.10134 2.40462 8.09054C3.84906 8.07493 5.2941 8.08634 6.73853 8.08634C6.74273 8.08634 6.74693 8.08634 6.75113 8.08634C6.89265 8.08634 7.00738 7.97161 7.00738 7.83009C7.00738 6.0562 7.00678 4.28171 7.00738 2.50781C7.00858 1.01837 8.02695 0.00239897 9.51879 0.00119877C10.6194 0.000598672 11.7194 0.00119877 12.8199 0.00119877C12.8721 0.00119877 12.925 -0.000601526 12.9772 0.00239897C13.2364 0.0174014 13.423 0.198631 13.429 0.439271C13.435 0.688312 13.2448 0.892946 12.976 0.896547C12.3699 0.903748 11.7632 0.899547 11.1571 0.899547C10.566 0.899547 9.97427 0.894146 9.38317 0.901348C8.56163 0.911549 7.91053 1.55246 7.90873 2.37279C7.90272 4.80559 7.90212 7.23839 7.90873 9.6712C7.91113 10.5071 8.57364 11.139 9.43118 11.1402C11.9612 11.1432 14.4912 11.1444 17.0218 11.1366C17.2943 11.136 17.5049 11.2081 17.7107 11.3881C18.4543 12.0386 19.211 12.6741 19.9629 13.3144C20.0438 13.383 20.1682 13.3214 20.1682 13.2154C20.1682 12.8308 20.1682 12.4671 20.1682 12.1034C20.1682 11.954 20.1664 11.8039 20.1682 11.6545C20.1724 11.3239 20.3284 11.1606 20.6578 11.1402C21.402 11.094 21.9594 10.6032 22.0813 9.87883C22.0999 9.76901 22.0993 9.65499 22.0993 9.54338C22.1005 7.20059 22.1005 4.8572 22.0993 2.51441C22.0993 1.51705 21.486 0.900747 20.494 0.900147C19.3712 0.899547 18.2484 0.906748 17.1257 0.891746C16.972 0.889946 16.7776 0.816133 16.6798 0.706315C16.5988 0.6145 16.5916 0.411067 16.6246 0.275444C16.6714 0.0852127 16.8454 0.00239897 17.0428 0.00239897C17.6267 0.00119877 18.2106 0.00179887 18.7945 0.00119877C19.3856 0.00119877 19.9773 -0.00180172 20.5684 0.00179887C21.957 0.0102003 22.9928 1.04297 22.9958 2.434C23.0006 4.79959 22.9976 7.16518 22.997 9.53017C22.997 10.7574 22.3549 11.6155 21.1769 11.9696C21.1075 11.9899 21.0647 12.0599 21.0647 12.1323C21.0644 12.8655 21.0619 13.5961 21.0665 14.3268C21.0683 14.5584 21.0311 14.7618 20.7977 14.8705C20.5606 14.9809 20.3848 14.8627 20.2114 14.7138C19.2116 13.8563 18.21 13.0005 17.2043 12.1502C17.1323 12.0896 17.0224 12.0488 16.9282 12.0446C16.7047 12.0349 16.4809 12.0368 16.2477 12.0386C16.1049 12.0396 15.9891 12.1556 15.9891 12.2984C15.9891 14.0651 15.9891 15.8318 15.9891 17.5985C15.9891 19.118 14.9773 20.1249 13.4518 20.1249C11.0112 20.1249 8.57124 20.1231 6.13063 20.1309C6.00401 20.1309 5.85279 20.1873 5.75557 20.2689C4.75821 21.1067 3.77044 21.9552 2.77908 22.7996C2.73321 22.8386 2.68504 22.8747 2.6364 22.9101C2.55639 22.9684 2.45973 23 2.36074 23C2.28401 23 2.20642 22.9833 2.14583 22.9363C1.9781 22.8059 1.91756 22.6253 1.92574 22.3903C1.94254 21.9126 1.93054 21.4337 1.93054 20.9555C1.93054 20.6911 1.93054 20.4272 1.93054 20.1715C1.93054 20.1279 1.90641 20.0837 1.86453 20.0715C1.81412 20.0571 1.76311 20.0457 1.7133 20.0295C0.894768 19.7637 0.351078 19.223 0.0918352 18.4002C0.0210939 18.176 -0.00238037 17.9396 -0.00238037 17.7045C-0.00238037 15.188 -0.00238037 12.671 -0.00238037 10.1545C-0.00238037 10.1537 -0.00175879 10.1531 -0.000992024 10.1531ZM8.76687 12.0181C8.76687 12.018 8.767 12.018 8.76703 12.0181C8.77905 12.0548 8.79938 12.1235 8.82448 12.1904C9.35437 13.5952 9.88665 14.9995 10.4147 16.4049C10.5234 16.6942 10.4249 16.9378 10.1735 17.0368C9.92626 17.1346 9.68742 17.0122 9.5746 16.7236C9.47379 16.4661 9.38797 16.2027 9.27755 15.9494C9.25115 15.8882 9.15573 15.8192 9.09152 15.8186C8.3654 15.8096 7.63988 15.8156 6.91376 15.8096C6.79614 15.8084 6.74153 15.8498 6.70373 15.9566C6.60951 16.2243 6.5105 16.4907 6.40308 16.7536C6.29626 17.0146 6.06162 17.1262 5.82758 17.0416C5.57914 16.9516 5.47412 16.711 5.56474 16.4379C5.58334 16.3809 5.60435 16.3251 5.62595 16.2693C5.97761 15.3481 6.32987 14.427 6.68092 13.5058C6.87317 13.0017 7.06515 12.4974 7.25978 11.9859C7.44756 11.4925 7.30165 10.9433 7.13832 10.4413C7.01202 10.053 6.98993 9.62936 7.003 9.19336C7.00639 9.08017 6.91659 8.98528 6.80334 8.98528C5.3439 8.98528 3.88446 8.98288 2.42502 8.98648C1.53747 8.98888 0.899569 9.62919 0.898368 10.5203C0.895968 12.9075 0.895968 15.2953 0.898368 17.6825C0.898969 18.5527 1.48347 19.1714 2.34761 19.2266C2.66326 19.247 2.82649 19.4114 2.82889 19.7259C2.83249 20.2647 2.82949 20.8036 2.83069 21.3425C2.83069 21.4329 2.94245 21.4793 3.01257 21.4223C3.03419 21.4047 3.05497 21.3876 3.07553 21.3701C3.82685 20.7286 4.58058 20.0907 5.3265 19.4426C5.50113 19.2908 5.68116 19.223 5.914 19.2236C8.43621 19.2296 10.9584 19.2278 13.4806 19.2272C14.4768 19.2272 15.0919 18.6133 15.0925 17.6195C15.0931 15.8384 15.0925 14.0573 15.0925 12.2756C15.0925 12.1463 14.9816 12.044 14.8523 12.0429C12.8178 12.0251 10.7954 12.0668 8.76695 12.0182C8.7669 12.0182 8.76687 12.0181 8.76687 12.0181ZM8.00264 12.5565C8.00279 12.5565 8.00289 12.5566 8.00284 12.5568C7.8032 13.0816 7.61363 13.5801 7.42581 14.0737C7.27285 14.4757 7.56973 14.9065 7.99983 14.9065C8.42901 14.9065 8.72581 14.4775 8.57448 14.0758C8.38822 13.5815 8.20001 13.0818 8.00245 12.5568C8.0024 12.5566 8.0025 12.5565 8.00264 12.5565Z" fill="#333E92"/>
<path d="M15.4514 3.93425C15.839 3.93425 16.1973 3.93425 16.5549 3.93425C17.0266 3.93425 17.4977 3.93065 17.9694 3.93605C18.2664 3.93965 18.4585 4.11908 18.4609 4.37652C18.4627 4.63277 18.2748 4.8218 17.9778 4.8284C17.5073 4.8386 17.0362 4.8308 16.5423 4.8308C16.5165 5.88877 16.2141 6.84293 15.6002 7.70767C16.0917 8.19615 16.6696 8.52201 17.3261 8.71044C17.5193 8.76565 17.7209 8.79145 17.9178 8.83586C18.1938 8.89827 18.3342 9.0969 18.2916 9.35615C18.252 9.59559 18.0522 9.74621 17.7803 9.7132C16.7944 9.59379 15.932 9.19292 15.1789 8.54961C15.1279 8.50581 15.0775 8.4614 15.0259 8.41819C15.0211 8.41399 15.0121 8.41519 14.9857 8.41099C14.5248 8.83766 14.0009 9.19772 13.3966 9.41195C13.033 9.54098 12.6519 9.63039 12.272 9.703C11.9582 9.76301 11.7445 9.60099 11.7121 9.33454C11.6785 9.0579 11.8424 8.86527 12.1754 8.81606C12.9915 8.69544 13.6991 8.35218 14.3124 7.80489C14.34 7.78029 14.3754 7.76348 14.4216 7.73348C13.8089 6.85733 13.4854 5.91098 13.4704 4.8314C13.3576 4.8314 13.2562 4.8314 13.1554 4.8314C12.7665 4.8296 12.377 4.838 11.9882 4.8224C11.7193 4.8116 11.5459 4.62076 11.5465 4.37892C11.5465 4.12868 11.7331 3.93905 12.0122 3.93665C12.7605 3.93005 13.5088 3.93365 14.2572 3.93305C14.346 3.93305 14.4348 3.93305 14.5554 3.93305C14.5554 3.58199 14.5548 3.24894 14.5554 2.91588C14.5554 2.83367 14.5506 2.74965 14.5668 2.66984C14.613 2.4442 14.8153 2.30138 15.0469 2.32178C15.2737 2.34159 15.4442 2.51202 15.4496 2.75506C15.4586 3.13612 15.452 3.51718 15.452 3.93305L15.4514 3.93425ZM14.3736 4.8458C14.3796 5.60793 14.5824 6.30404 15.0037 6.97795C15.4208 6.30644 15.6254 5.61453 15.6326 4.8458H14.3736Z" fill="#333E92"/>
<path d="M15.0115 0.00300173C15.2593 0.00780252 15.4622 0.223838 15.4507 0.469879C15.4399 0.708718 15.2329 0.90255 14.9947 0.89775C14.7474 0.892949 14.5446 0.676913 14.556 0.430872C14.5668 0.192033 14.7732 -0.00179907 15.0115 0.00300173Z" fill="#333E92"/>
</g>
<defs>
<clipPath id="clip0_99_425">
<rect width="23" height="23" fill="white"/>
</clipPath>
</defs>
</svg>
