<svg width="16" height="16" viewBox="0 0 16 16" fill="none" xmlns="http://www.w3.org/2000/svg">
<path d="M12.6667 8H8.66667C8.29848 8 8 8.29848 8 8.66667V13.3333H12.6667C13.0349 13.3333 13.3333 13.0349 13.3333 12.6667V8.66667C13.3333 8.29848 13.0349 8 12.6667 8Z" stroke="#BEC2DD" stroke-linecap="round" stroke-linejoin="round"/>
<path d="M7.33333 8H3.33333C2.96514 8 2.66666 8.29848 2.66666 8.66667V12.6667C2.66666 13.0349 2.96514 13.3333 3.33333 13.3333H8V8.66667C8 8.29848 7.70152 8 7.33333 8Z" stroke="#BEC2DD" stroke-linecap="round" stroke-linejoin="round"/>
<path d="M13.3333 5.33333H8.66667C8.29848 5.33333 8 5.63181 8 6V7.33333C8 7.70152 8.29848 8 8.66667 8H13.3333C13.7015 8 14 7.70152 14 7.33333V6C14 5.63181 13.7015 5.33333 13.3333 5.33333Z" stroke="#BEC2DD" stroke-linecap="round" stroke-linejoin="round"/>
<path d="M7.33333 5.33333H2.66667C2.29848 5.33333 2 5.63181 2 6V7.33333C2 7.70152 2.29848 8 2.66667 8H7.33333C7.70152 8 8 7.70152 8 7.33333V6C8 5.63181 7.70152 5.33333 7.33333 5.33333Z" stroke="#BEC2DD" stroke-linecap="round" stroke-linejoin="round"/>
<path d="M8 5.33333V3.66667C8 2.74619 8.74619 2 9.66667 2C10.5871 2 11.3333 2.74619 11.3333 3.66667C11.3333 4.58714 10.5871 5.33333 9.66667 5.33333H8Z" stroke="#BEC2DD" stroke-linecap="round" stroke-linejoin="round"/>
<path d="M8 5.33333V3.66667C8 2.74619 7.25381 2 6.33333 2C5.41286 2 4.66666 2.74619 4.66666 3.66667C4.66666 4.58714 5.41286 5.33333 6.33333 5.33333H8Z" stroke="#BEC2DD" stroke-linecap="round" stroke-linejoin="round"/>
</svg>
