<svg width="18" height="17" viewBox="0 0 18 17" fill="none" xmlns="http://www.w3.org/2000/svg">
<path d="M17.9083 8.69385C17.909 8.11463 17.8582 7.53642 17.7565 6.96558H9.44409V10.2391H14.205C14.1076 10.762 13.9014 11.2604 13.5989 11.7043C13.2963 12.1482 12.9037 12.5285 12.4446 12.8221V14.947H15.286C16.9497 13.4679 17.9083 11.2804 17.9083 8.69385Z" fill="#4285F4"/>
<path d="M9.44395 16.9999C11.8226 16.9999 13.8254 16.2467 15.2859 14.9482L12.4445 12.8233C11.6536 13.3403 10.6351 13.6354 9.44395 13.6354C7.14488 13.6354 5.19349 12.1409 4.49569 10.127H1.5686V12.3168C2.30223 13.7246 3.42717 14.908 4.81783 15.7349C6.20849 16.5619 7.81013 16.9998 9.44395 16.9999Z" fill="#34A853"/>
<path d="M4.49578 10.127C4.12688 9.07163 4.12688 7.92878 4.49578 6.87345V4.68359H1.56869C0.951541 5.86783 0.630127 7.17484 0.630127 8.5002C0.630127 9.82557 0.951541 11.1326 1.56869 12.3168L4.49578 10.127Z" fill="#FBBC04"/>
<path d="M9.44395 3.36503C10.701 3.34523 11.9156 3.80321 12.8252 4.63999L15.341 2.21403C13.7457 0.769163 11.6324 -0.0240904 9.44395 0.000557661C7.81013 0.000629466 6.20849 0.438594 4.81783 1.26555C3.42717 2.09252 2.30223 3.27593 1.5686 4.68367L4.49569 6.87352C5.19349 4.85956 7.14488 3.36503 9.44395 3.36503Z" fill="#EA4335"/>
</svg>
