<svg width="37" height="33" viewBox="0 0 37 33" fill="none" xmlns="http://www.w3.org/2000/svg">
<path d="M24.625 16.434H22.875L20.25 21.5283L16.75 11.3396L14.125 16.434H12.375M18.488 5.62686C14.9891 1.65766 9.15456 0.589958 4.77072 4.22455C0.386877 7.85915 -0.230306 13.936 3.21235 18.2347C5.81266 21.4815 13.1998 27.9998 16.659 30.9951C17.2949 31.5457 17.6129 31.8211 17.9852 31.9294C18.3084 32.0235 18.6676 32.0235 18.9908 31.9294C19.3632 31.8211 19.6811 31.5457 20.317 30.9951C23.7763 27.9998 31.1634 21.4815 33.7637 18.2347C37.2063 13.936 36.6645 7.82092 32.2053 4.22455C27.7461 0.62819 21.9869 1.65766 18.488 5.62686Z" stroke="#333E92" stroke-width="2" stroke-linecap="round" stroke-linejoin="round"/>
</svg>
