<svg width="24" height="24" viewBox="0 0 24 24" fill="none" xmlns="http://www.w3.org/2000/svg">
<path d="M7.57256 11.0999L11.2306 3C11.9582 3 12.6561 3.28446 13.1706 3.79081C13.6851 4.29715 13.9741 4.9839 13.9741 5.69998V9.29996H19.1503C19.4154 9.297 19.678 9.35081 19.9199 9.45765C20.1618 9.5645 20.3772 9.72182 20.5512 9.91872C20.7251 10.1156 20.8535 10.3474 20.9275 10.598C21.0014 10.8486 21.0191 11.112 20.9793 11.3699L19.7173 19.4699C19.6511 19.8991 19.4296 20.2903 19.0935 20.5715C18.7574 20.8527 18.3293 21.0048 17.8882 20.9999H7.57256M7.57256 11.0999V20.9999M7.57256 11.0999H4.82902C4.34394 11.0999 3.87872 11.2896 3.53571 11.6272C3.1927 11.9647 3 12.4226 3 12.8999V19.1999C3 19.6773 3.1927 20.1351 3.53571 20.4727C3.87872 20.8102 4.34394 20.9999 4.82902 20.9999H7.57256" stroke="#333E92" stroke-opacity="0.5" stroke-width="2" stroke-linecap="round" stroke-linejoin="round"/>
</svg>
