<svg width="18" height="18" viewBox="0 0 18 18" fill="none" xmlns="http://www.w3.org/2000/svg">
<path d="M10.9741 6.29996V2.69998C10.9741 1.9839 10.6851 1.29715 10.1706 0.790807C9.65606 0.284462 8.95823 0 8.2306 0L4.57256 8.09995V17.9999H14.8882C15.3293 18.0048 15.7574 17.8527 16.0935 17.5715C16.4296 17.2903 16.6511 16.8991 16.7173 16.4699L17.9793 8.36995C18.0191 8.11197 18.0014 7.84856 17.9275 7.59798C17.8535 7.34739 17.7251 7.11562 17.5512 6.91872C17.3772 6.72182 17.1618 6.5645 16.9199 6.45765C16.678 6.35081 16.4154 6.297 16.1503 6.29996H10.9741ZM4.57256 17.9999H1.82902C1.34394 17.9999 0.878716 17.8102 0.535708 17.4727C0.1927 17.1351 0 16.6773 0 16.1999V9.89994C0 9.42255 0.1927 8.96472 0.535708 8.62715C0.878716 8.28959 1.34394 8.09995 1.82902 8.09995H4.57256" fill="#999EC8"/>
</svg>
