<svg width="20" height="20" viewBox="0 0 20 20" fill="none" xmlns="http://www.w3.org/2000/svg">
<path d="M14.0585 1.7503H16.2968C16.7712 1.74204 17.2322 1.90551 17.5923 2.20967C17.9523 2.51382 18.1864 2.9375 18.25 3.40027V9.17516C18.1864 9.63793 17.9523 10.0616 17.5923 10.3658C17.2322 10.6699 16.7712 10.8334 16.2968 10.8251H14.0585M8.19038 12.4751V15.775C8.19038 16.4314 8.45534 17.061 8.92698 17.5251C9.39861 17.9892 10.0383 18.25 10.7053 18.25L14.0585 10.8251V1.7503H4.60245C4.19811 1.7458 3.80574 1.88526 3.49764 2.14299C3.18954 2.40071 2.98647 2.75933 2.92584 3.15277L1.76899 10.5776C1.73251 10.8141 1.74872 11.0556 1.81648 11.2853C1.88425 11.515 2.00195 11.7274 2.16143 11.9079C2.32091 12.0884 2.51836 12.2326 2.7401 12.3306C2.96184 12.4285 3.20256 12.4778 3.44559 12.4751H8.19038Z" stroke="#F31155" stroke-width="2" stroke-linecap="round" stroke-linejoin="round"/>
</svg>
