<svg width="28" height="28" viewBox="0 0 28 28" fill="none" xmlns="http://www.w3.org/2000/svg">
<circle cx="14" cy="14" r="13.5" fill="white" stroke="#FF0000"/>
<path d="M21.625 15.1254C21.5004 16.473 20.9947 17.7572 20.1669 18.8279C19.3392 19.8985 18.2236 20.7113 16.9507 21.171C15.6779 21.6308 14.3005 21.7185 12.9796 21.424C11.6587 21.1295 10.449 20.4648 9.49208 19.5079C8.53514 18.551 7.87052 17.3413 7.57599 16.0204C7.28147 14.6995 7.36922 13.3221 7.82897 12.0492C8.28873 10.7764 9.10147 9.66083 10.1721 8.83305C11.2427 8.00528 12.527 7.49953 13.8746 7.375C13.0856 8.44238 12.7059 9.75748 12.8047 11.0811C12.9034 12.4048 13.4739 13.649 14.4124 14.5876C15.351 15.5261 16.5952 16.0966 17.9189 16.1953C19.2425 16.294 20.5576 15.9144 21.625 15.1254Z" stroke="#FF0101" stroke-width="2" stroke-linecap="round" stroke-linejoin="round"/>
</svg>
